<?xml version="1.0" encoding="utf-8"?>
<!-- Generator: Adobe Illustrator 27.5.0, SVG Export Plug-In . SVG Version: 6.00 Build 0)  -->
<svg version="1.1" id="Layer_2" xmlns="http://www.w3.org/2000/svg" xmlns:xlink="http://www.w3.org/1999/xlink" x="0px" y="0px"
	 viewBox="0 0 397.628 258.964" style="enable-background:new 0 0 397.628 258.964;" xml:space="preserve">
<g>
	<g>
		<g>
			<path style="fill:#BCBCBC;" d="M45.784,204.922c43.179,21.529,106.669,37.105,216.186-7.772
				c109.517-44.876,126.13-82.803,123.411-95.144c-0.37-1.146-0.75-2.029-1.101-2.585c-4.194-6.641-11.185-8.039-11.185-8.039
				s12.991,30.73-82.524,74.053c-76.523,34.709-119.931,43.718-190.053,34.179c-57.45-7.815-73.405-35.162-77.308-45.75
				c0,0-7.971,2.299-11.26,11.611v0c0,0-0.001,0.002-0.001,0.002c-0.014,0.041-0.029,0.082-0.043,0.123
				C11.375,167.183,6.336,185.253,45.784,204.922z"/>
			<path style="fill:#777777;" d="M135.237,226.5c-2.095,0-4.177-0.03-6.25-0.087c-29.75-0.83-56.255-7.524-83.415-21.066
				c-39.563-19.726-34.79-37.891-34.116-39.897l0.047-0.135c3.33-9.432,11.24-11.811,11.575-11.908
				c0.241-0.07,0.491,0.059,0.578,0.292c12.595,34.17,62.064,43.422,76.926,45.444c68.34,9.293,110.909,1.637,189.793-34.142
				c27.095-12.29,62.41-31.453,76.783-52.956c8.541-12.779,5.531-20.405,5.5-20.481c-0.068-0.162-0.04-0.349,0.071-0.484
				c0.111-0.135,0.287-0.201,0.46-0.165c0.294,0.059,7.239,1.515,11.493,8.251c0.377,0.598,0.776,1.528,1.151,2.692
				c2.301,10.435-8.691,25.36-19.742,35.862c-21.207,20.154-56.177,40.296-103.941,59.868
				C214.743,217.016,173.144,226.499,135.237,226.5z M22.929,154.464c-1.649,0.624-7.791,3.414-10.53,11.17l-0.037,0.104
				c-0.652,1.94-5.21,19.391,33.634,38.759c27.032,13.478,53.411,20.14,83.017,20.966c39.44,1.118,82.875-8.304,132.777-28.752
				c104.45-42.8,126.213-80.597,123.128-94.603c-0.34-1.046-0.703-1.902-1.039-2.433c-3.205-5.075-8.15-7.019-10.073-7.609
				c0.597,2.386,1.419,9.545-5.758,20.36c-14.43,21.744-49.99,41.064-77.279,53.442c-79.077,35.867-121.766,43.543-190.314,34.218
				c-24.874-3.383-44.713-10.763-58.963-21.932C29.803,168.991,24.878,159.545,22.929,154.464z"/>
		</g>
		<path style="fill:#BCBCBC;" d="M385.382,102.005c-0.37-1.146-0.75-2.029-1.101-2.585c-4.194-6.641-11.185-8.039-11.185-8.039
			s12.991,30.73-82.524,74.053c-76.523,34.709-119.931,43.718-190.053,34.18c-57.45-7.815-73.405-35.162-77.308-45.75
			c0,0-7.971,2.299-11.26,11.611v0c0,0-0.001,0.002-0.001,0.002c-0.014,0.041-0.029,0.082-0.043,0.123
			c-0.532,1.583-5.572,19.652,33.877,39.322c43.179,21.529,106.669,37.105,216.186-7.772
			C371.487,152.273,388.101,114.347,385.382,102.005z M237.288,203.179c-90.971,35.577-203.307,14.635-219.789-29.51
			c-3.907-10.463,3.672-18,5.454-10.34c3.701,15.906,29.624,46.748,107.349,51.565c26.599,1.648,46.96-0.254,51.668-11.714
			c0,0,69.286-8.851,143.503-51.741C346.719,139.159,335.335,164.835,237.288,203.179z"/>
		<path style="fill:#BCBCBC;" d="M385.382,102.005c-0.37-1.146-0.75-2.029-1.101-2.585c-4.194-6.641-11.185-8.039-11.185-8.039
			s8.318,19.706-37.402,49.801l0,0.003c0,0,25.816-12.106,36.429-27.625c8.663-12.667,12.576,7.467-18.936,33.948l0.226,0.383
			C381.664,126.06,387.015,109.417,385.382,102.005z"/>
	</g>
	<g>
		<g>
			<path style="fill:#2B8DD6;" d="M261.971,197.15c-109.517,44.877-173.007,29.301-216.186,7.772
				C6.336,185.253,11.375,167.183,11.907,165.6c-0.829,2.393-1.354,5.236-1.354,8.625c0,16.726-2.533,28.904,14.142,43.339
				C41.37,232,81.192,258.879,159.839,250.417c78.647-8.462,185.118-62.967,218.296-105.038
				c11.334-14.371,9.866-35.257,7.247-43.374C388.101,114.347,371.487,152.273,261.971,197.15z"/>
			<path style="fill:#145993;" d="M130.999,252.49c-43.776,0.001-80.259-11.752-106.615-34.566
				c-14.847-12.853-14.64-23.898-14.377-37.882c0.035-1.881,0.071-3.816,0.071-5.816c0-3.182,0.464-6.137,1.38-8.781l0.899,0.307
				c-0.648,1.926-5.205,19.378,33.639,38.745c27.032,13.478,53.411,20.14,83.017,20.966c39.44,1.111,82.875-8.304,132.777-28.752
				l0.18,0.44l-0.18-0.44c104.45-42.8,126.213-80.597,123.128-94.603l0.916-0.248c2.58,7.993,4.183,29.22-7.326,43.814
				c-16.066,20.373-50.556,44.767-92.261,65.254c-43.674,21.455-89.73,36.02-126.357,39.961
				C149.949,251.959,140.308,252.49,130.999,252.49z M11.126,171.785c-0.065,0.796-0.097,1.611-0.097,2.441
				c0,2.006-0.036,3.947-0.072,5.834c-0.257,13.736-0.461,24.585,14.049,37.146c31.755,27.489,78.362,38.804,134.782,32.739
				c36.522-3.93,82.462-18.461,126.04-39.869c41.583-20.428,75.951-44.722,91.934-64.99c9.462-11.999,9.872-28.586,8.263-38.238
				c-1.184,9.818-10.538,21.945-19.933,30.873c-21.207,20.154-56.178,40.296-103.941,59.868
				c-50.027,20.499-93.591,29.919-133.163,28.823c-29.75-0.83-56.255-7.524-83.415-21.066
				C18.578,191.888,12.225,179.154,11.126,171.785z"/>
		</g>
		<path style="opacity:0.4;fill:#2B8DD6;" d="M385.382,102.005c2.719,12.341-13.895,50.268-123.411,95.144
			c-109.517,44.877-173.007,29.301-216.186,7.772C8.306,186.235,10.983,168.994,11.8,165.961c-0.761,2.32-1.246,5.038-1.246,8.265
			c0,16.726-2.533,28.904,14.142,43.339C41.37,232,81.192,258.879,159.839,250.417c78.647-8.462,185.118-62.967,218.296-105.038
			C389.469,131.008,388.001,110.122,385.382,102.005z M172.498,245.774c-45.745,8.432-128.533-1.687-156.103-42.595
			c-8.176-12.132,1.763-12.522,14.338-2.078c26.634,22.119,94.585,41.168,159.191,24.921
			C254.529,209.776,218.243,237.342,172.498,245.774z"/>
		<path style="opacity:0.4;fill:#2B8DD6;" d="M385.382,102.005c2.488,11.293-11.228,44.013-97.492,83.875
			c29.629-12.353,30.553,8.842-5.142,26.22c41.993-20.242,78.352-45.12,95.387-66.721
			C389.469,131.008,388.001,110.122,385.382,102.005z"/>
		<path style="opacity:0.3;fill:#2B8DD6;" d="M29.692,207.21c22.196,13.835,71.939,33.654,117.88,28.045
			c45.94-5.609-21.368,21.1-86.149-3.205C29.99,220.256,9.123,194.389,29.692,207.21z"/>
	</g>
	<g>
		<path style="fill:#9E0D0D;" d="M240.687,107.965c28.101-5.296,61.191-23.531,87.817-39.011
			c25.686-14.933,16.25-18.724,15.55-18.973c-43.838-11.704-83.186-5.924-136.67,27.607c7.608,3.424,7.147,5.115,7.916,9.574
			c0.769,4.458,1.23,10.608,1.23,10.608C232.435,101.357,234.433,109.143,240.687,107.965z"/>
		<path style="fill:#840D0D;" d="M239.438,108.561c-2.406,0-4.296-1.31-6.769-3.023c-3.287-2.278-7.789-5.397-16.244-7.306
			c-0.204-0.045-0.354-0.219-0.369-0.428c-0.005-0.061-0.468-6.178-1.224-10.562c-0.072-0.417-0.133-0.81-0.191-1.182
			c-0.555-3.564-0.785-5.04-7.452-8.039c-0.16-0.072-0.267-0.226-0.279-0.401c-0.012-0.174,0.073-0.341,0.222-0.435
			c51.051-32.008,90.755-40.022,137.045-27.664c0.431,0.152,2.403,0.96,2.6,3.087c0.364,3.949-5.703,9.587-18.033,16.756
			c-29.725,17.283-60.956,33.977-87.968,39.068l0,0C240.309,108.52,239.865,108.561,239.438,108.561z M240.688,107.965h0.009
			H240.688z M216.977,97.383c8.415,1.955,12.928,5.081,16.234,7.373c2.824,1.958,4.692,3.247,7.389,2.742l0,0
			c26.87-5.064,58.014-21.715,87.666-38.956c15.713-9.135,17.749-13.849,17.565-15.847c-0.143-1.552-1.638-2.162-1.936-2.268
			c-45.744-12.211-85.067-4.368-135.512,27.096c6.356,2.989,6.644,4.84,7.197,8.389c0.057,0.368,0.117,0.755,0.188,1.167
			C216.428,90.902,216.866,96.013,216.977,97.383z"/>
	</g>
	<path style="fill:#DB3423;" d="M344.055,49.98c-28.911-7.719-55.871-7.827-86.217,2.608c0.064,3.935-0.32,7.903-0.824,11.712
		c-0.83,6.275-1.969,12.411-5.558,17.772c-3.422,5.112-8.771,8.867-14.873,9.912c-6.135,1.051-11.986-0.554-16.652-4.644
		c-3.913-3.43-7.046-8.1-12.214-9.735c-0.079-0.025-0.142-0.061-0.214-0.092c-0.039,0.025-0.078,0.048-0.118,0.073
		c7.608,3.424,7.147,5.115,7.916,9.574c0.769,4.458,1.23,10.608,1.23,10.608c15.905,3.589,17.903,11.375,24.157,10.196
		c28.101-5.296,61.191-23.531,87.817-39.011C354.19,54.02,344.754,50.229,344.055,49.98z"/>
	<g>
		<g>
			<path style="fill:#3F3E3E;" d="M333.426,11.476c-15.878-3.472-46.347-6.263-56.575-3.251
				c-10.228,3.013-8.097,10.585-10.228,26.405c-1.706,12.668-3.862,52.148-4.653,67.375c18.912-6.762,38.697-17.176,56.461-27.261
				c1.282-9.986,3.03-24.814,4.148-39.215C324.574,9.844,333.426,11.476,333.426,11.476z"/>
			<path style="fill:#1E1E1E;" d="M261.971,102.48c-0.101,0-0.2-0.033-0.284-0.094c-0.128-0.095-0.199-0.248-0.191-0.406
				c0.835-16.073,2.96-54.817,4.656-67.413c0.463-3.438,0.725-6.492,0.956-9.186c0.838-9.777,1.299-15.163,9.608-17.611
				c10.375-3.057,41.137-0.185,56.811,3.242c0.253,0.056,0.415,0.303,0.364,0.558c-0.051,0.253-0.294,0.427-0.548,0.374
				c-0.064-0.008-1.374-0.202-3.082,1.137c-2.654,2.081-6.059,7.67-7.208,22.485c-1.12,14.427-2.876,29.302-4.151,39.239
				c-0.019,0.148-0.107,0.279-0.237,0.353c-14.465,8.212-36.063,19.976-56.535,27.295
				C262.079,102.471,262.025,102.48,261.971,102.48z M290.5,7.411c-5.674,0-10.483,0.378-13.515,1.27
				c-7.686,2.265-8.102,7.116-8.93,16.781c-0.232,2.705-0.494,5.771-0.961,9.232c-1.667,12.38-3.753,50.157-4.612,66.623
				c20.105-7.274,41.235-18.77,55.508-26.868c1.272-9.925,3.006-24.662,4.116-38.957c1.183-15.241,4.802-21.032,7.63-23.206
				c0.469-0.361,0.918-0.623,1.332-0.814C319.963,9.271,303.102,7.411,290.5,7.411z"/>
		</g>
		<g>
			<g>
				<path style="fill:#3F3E3E;" d="M333.426,14.67c5.048-1.832,8.129,4.749,9.83,11.225c-1.389-7.039-4.229-13.195-9.83-14.42
					c0,0-8.852-1.632-10.846,24.053c-1.118,14.401-2.867,29.229-4.148,39.215c1.32-0.75,2.62-1.495,3.919-2.24
					c0.353-4.608,0.779-9.909,1.209-14.661C326.495,25.433,328.371,16.505,333.426,14.67z"/>
				<path style="fill:#1E1E1E;" d="M318.431,75.22c-0.093,0-0.185-0.027-0.265-0.081c-0.149-0.1-0.229-0.277-0.206-0.455
					c1.274-9.927,3.028-24.784,4.146-39.192c1.183-15.241,4.802-21.032,7.63-23.206c2.046-1.573,3.704-1.288,3.776-1.278
					c5.06,1.107,8.491,6.083,10.21,14.796c0.05,0.251-0.11,0.497-0.36,0.555c-0.249,0.059-0.5-0.094-0.566-0.342
					c-1.521-5.791-3.563-9.501-5.903-10.727c-1.04-0.546-2.122-0.601-3.306-0.173c-4.722,1.714-6.597,10.109-9.555,42.77
					c-0.367,4.048-0.774,8.979-1.209,14.654c-0.012,0.157-0.101,0.298-0.237,0.376l-0.443,0.254
					c-1.152,0.66-2.307,1.322-3.478,1.986C318.593,75.199,318.512,75.22,318.431,75.22z M333.099,11.927
					c-0.449,0-1.526,0.126-2.837,1.154c-2.654,2.081-6.058,7.67-7.208,22.485c-1.085,13.977-2.766,28.375-4.03,38.295
					c0.888-0.507,1.769-1.011,2.648-1.515l0.225-0.128c0.428-5.576,0.828-10.425,1.19-14.417
					c3.037-33.53,4.939-41.676,10.178-43.577l0,0c1.429-0.521,2.798-0.444,4.071,0.224c0.348,0.183,0.687,0.407,1.018,0.675
					c-1.42-1.697-3.099-2.761-5.029-3.183C333.316,11.939,333.237,11.927,333.099,11.927z M322.35,72.505h0.009H322.35z"/>
			</g>
			<path style="opacity:0.5;fill:#3F3E3E;" d="M333.426,14.67c5.048-1.832,8.129,4.749,9.83,11.225
				c-1.389-7.039-4.229-13.195-9.83-14.42c0,0-8.852-1.632-10.846,24.053c-1.118,14.401-2.867,29.229-4.148,39.215
				c1.32-0.75,2.62-1.495,3.919-2.24c0.353-4.608,0.779-9.909,1.209-14.661C326.495,25.433,328.371,16.505,333.426,14.67z"/>
			<g>
				<g>
					<path style="fill:#3F3E3E;" d="M344.055,49.98l-0.456,8.042C349.161,52.005,344.536,50.152,344.055,49.98z"/>
					<path style="fill:#1E1E1E;" d="M343.599,58.497c-0.063,0-0.126-0.012-0.186-0.038c-0.185-0.078-0.3-0.264-0.289-0.464
						l0.456-8.042c0.008-0.149,0.087-0.286,0.212-0.369c0.125-0.083,0.28-0.102,0.422-0.051c0.337,0.12,2.042,0.809,2.477,2.576
						c0.422,1.713-0.502,3.81-2.744,6.236C343.856,58.444,343.728,58.497,343.599,58.497z M344.488,50.717l-0.336,5.93
						c1.339-1.701,1.896-3.177,1.617-4.311C345.568,51.519,344.961,51.005,344.488,50.717z"/>
				</g>
				<g>
					<path style="fill:#3F3E3E;" d="M343.256,25.896c-1.701-6.477-4.782-13.058-9.83-11.225c-5.055,1.835-6.931,10.763-9.867,43.173
						c-0.43,4.752-0.856,10.053-1.209,14.661c2.082-1.194,4.144-2.382,6.155-3.552c7.992-4.647,12.582-8.214,15.094-10.931
						l0.456-8.042C344.055,49.98,345.42,36.863,343.256,25.896z"/>
					<path style="fill:#1E1E1E;" d="M322.35,72.98c-0.088,0-0.176-0.024-0.254-0.073c-0.148-0.094-0.233-0.263-0.22-0.438
						c0.436-5.681,0.843-10.615,1.21-14.668c3.037-33.53,4.939-41.676,10.178-43.577c1.429-0.521,2.798-0.444,4.071,0.224
						c2.62,1.373,4.766,5.184,6.38,11.328c0.003,0.009,0.005,0.018,0.007,0.029c2.153,10.91,0.819,24.093,0.805,24.225l-0.454,8.02
						c-0.006,0.11-0.051,0.214-0.125,0.296c-2.892,3.127-8.007,6.835-15.204,11.019c-2.012,1.17-4.074,2.358-6.157,3.553
						C322.513,72.959,322.432,72.98,322.35,72.98z M335.101,14.832c-0.488,0-0.991,0.096-1.514,0.285
						c-4.722,1.714-6.597,10.109-9.555,42.77c-0.348,3.833-0.731,8.459-1.14,13.759c1.816-1.044,3.614-2.081,5.373-3.104
						c7.019-4.08,12.02-7.685,14.869-10.718l0.446-7.871c0.015-0.153,1.334-13.185-0.788-23.95
						c-1.521-5.783-3.561-9.488-5.899-10.713C336.313,14.984,335.719,14.832,335.101,14.832z"/>
				</g>
				<path style="opacity:0.5;fill:#3F3E3E;" d="M343.256,25.896c-1.701-6.477-4.782-13.058-9.83-11.225
					c-5.055,1.835-6.931,10.763-9.867,43.173c-0.43,4.752-0.856,10.053-1.209,14.661c2.082-1.194,4.144-2.382,6.155-3.552
					c7.992-4.647,12.582-8.214,15.094-10.931l0.456-8.042C344.055,49.98,345.42,36.863,343.256,25.896z"/>
			</g>
		</g>
		<g>
			<path style="fill:#231F20;" d="M322.58,36.004c-0.017,0-0.035-0.001-0.052-0.003l-55.36-6.1c-0.261-0.029-0.449-0.263-0.42-0.524
				c0.029-0.261,0.256-0.45,0.524-0.42l55.36,6.1c0.261,0.029,0.449,0.263,0.42,0.524C323.025,35.824,322.819,36.004,322.58,36.004z
				"/>
			<path style="fill:#231F20;" d="M320.73,55.759c-0.015,0-0.03-0.001-0.045-0.002l-55.569-5.305
				c-0.261-0.025-0.453-0.257-0.428-0.519c0.025-0.261,0.25-0.44,0.518-0.428l55.569,5.305c0.261,0.025,0.453,0.257,0.428,0.519
				C321.179,55.576,320.972,55.759,320.73,55.759z"/>
			<path style="fill:#231F20;" d="M318.826,72.105c-0.013,0-0.026-0.001-0.039-0.002l-54.859-4.475
				c-0.262-0.021-0.456-0.25-0.435-0.512c0.021-0.261,0.259-0.456,0.512-0.434l54.859,4.475c0.262,0.021,0.456,0.25,0.435,0.512
				C319.279,71.917,319.071,72.105,318.826,72.105z"/>
			<path style="fill:#231F20;" d="M298.975,85.854c-0.013,0-0.026-0.001-0.039-0.002l-35.932-2.963
				c-0.262-0.021-0.456-0.25-0.435-0.512c0.022-0.262,0.252-0.445,0.513-0.434l35.932,2.963c0.262,0.021,0.456,0.251,0.435,0.512
				C299.427,85.667,299.22,85.854,298.975,85.854z"/>
		</g>
		<path style="opacity:0.5;fill:#3F3E3E;" d="M343.256,25.896c-1.701-6.477-4.782-13.058-9.83-11.225
			c-5.055,1.835-6.931,10.763-9.867,43.173c-0.43,4.751-0.856,10.053-1.209,14.661c2.082-1.194,4.144-2.382,6.155-3.551
			c7.992-4.647,12.582-8.214,15.094-10.931l0.456-8.042C344.055,49.98,345.42,36.863,343.256,25.896z M332.472,63.83
			c-8.864,5.205-6.503-1.932-4.904-26.168c2.153-32.631,11.423-18.114,11.94-7.903C340.255,44.497,341.336,58.626,332.472,63.83z"/>
		<path style="opacity:0.5;fill:#3F3E3E;" d="M276.851,8.226c-10.228,3.013-8.097,10.585-10.228,26.405
			c-1.706,12.668-3.862,52.148-4.653,67.375c18.912-6.762,38.697-17.176,56.461-27.261c1.282-9.986,3.03-24.814,4.148-39.215
			c1.994-25.685,10.846-24.053,10.846-24.053C317.548,8.004,287.078,5.213,276.851,8.226z M313.298,54.036
			c-0.891,9.384,0.736,14.471-20.353,24.847c-21.089,10.377-28.531,13.667-28.586,6.53c-0.055-7.137,1.099-9.071,2.86-30.939
			c3.365-41.769,15.266-46.442,30.408-44.45C312.545,11.987,316.368,21.69,313.298,54.036z"/>
		<path style="opacity:0.6;fill:#3F3E3E;" d="M284.832,15.849c-8.191,4.382-13.533,11.067-15.847,42.173
			c-2.315,31.106,4.095,35.415,3.561,20.535C272.012,63.677,273.08,30.697,284.832,15.849z"/>
	</g>
	<g>
		<g>
			<path style="fill:#FFB715;" d="M373.096,91.381c0,0-1.393-10.536-9.105-11.039c0,0,22.096,30.948-73.419,74.271
				c-2.307,1.046-4.581,2.068-6.83,3.07c-0.767,0.342-1.516,0.668-2.276,1.005c-1.461,0.647-2.924,1.294-4.363,1.922
				c-0.934,0.408-1.851,0.8-2.776,1.2c-1.24,0.536-2.483,1.073-3.706,1.595c-0.995,0.424-1.975,0.834-2.96,1.249
				c-1.124,0.473-2.25,0.947-3.36,1.408c-1.034,0.429-2.056,0.846-3.079,1.264c-1.033,0.422-2.066,0.844-3.088,1.255
				c-1.06,0.427-2.111,0.843-3.159,1.258c-0.961,0.38-1.92,0.758-2.871,1.128c-1.078,0.419-2.15,0.831-3.216,1.238
				c-0.896,0.342-1.79,0.68-2.679,1.012c-1.097,0.411-2.19,0.816-3.276,1.214c-0.833,0.305-1.662,0.604-2.489,0.901
				c-1.118,0.401-2.234,0.799-3.341,1.186c-0.767,0.268-1.529,0.528-2.291,0.789c-1.15,0.394-2.299,0.786-3.439,1.165
				c-0.682,0.226-1.358,0.444-2.036,0.664c-1.202,0.391-2.405,0.782-3.596,1.155c-0.557,0.174-1.108,0.339-1.662,0.51
				c-1.302,0.401-2.604,0.8-3.894,1.179c-0.297,0.087-0.59,0.167-0.886,0.253c-8.347,2.425-16.47,4.399-24.513,5.929
				c-0.238,0.045-0.477,0.095-0.715,0.139c-1.402,0.262-2.802,0.505-4.201,0.74c-0.338,0.057-0.677,0.118-1.015,0.173
				c-1.355,0.222-2.709,0.426-4.062,0.622c-0.375,0.054-0.749,0.111-1.124,0.163c-1.338,0.187-2.677,0.359-4.015,0.522
				c-0.385,0.047-0.77,0.094-1.155,0.139c-1.342,0.156-2.687,0.298-4.031,0.429c-0.372,0.036-0.743,0.072-1.115,0.106
				c-1.365,0.126-2.733,0.24-4.103,0.341c-0.34,0.025-0.682,0.048-1.022,0.071c-1.408,0.097-2.82,0.183-4.235,0.253
				c-0.28,0.014-0.561,0.025-0.841,0.038c-1.482,0.068-2.969,0.125-4.46,0.164c-0.171,0.004-0.342,0.006-0.513,0.01
				c-17.898,0.425-36.541-1.23-57.548-4.937c-69.691-12.298-69.418-37.923-65.045-47.762c0,0-6.024-1.861-10.91,5.74
				c-2.632,4.096-1.465,8.751-1.465,8.751c3.903,10.588,19.858,37.935,77.308,45.75c70.122,9.538,113.53,0.529,190.053-34.179
				C386.087,122.111,373.096,91.381,373.096,91.381z"/>
			<path style="fill:#EA8000;" d="M148.553,203.716c-15.05,0-30.744-1.271-48.098-3.632c-24.874-3.383-44.713-10.763-58.963-21.932
				c-12.033-9.431-16.898-19.163-18.727-24.125c-0.064-0.247-1.201-4.951,1.511-9.172c5.022-7.815,11.386-5.956,11.449-5.937
				l0.511,0.158l-0.217,0.489c-1.119,2.519-3.269,9.229,0.936,17.133c5.014,9.423,20.145,22.271,63.758,29.968
				c21.159,3.733,39.948,5.349,57.455,4.93l0.511-0.01c1.489-0.039,2.972-0.096,4.452-0.163l0.84-0.037
				c1.412-0.07,2.821-0.157,4.226-0.253l1.02-0.071c1.367-0.1,2.732-0.214,4.095-0.34l1.112-0.106
				c1.341-0.131,2.683-0.273,4.023-0.429l1.152-0.138c1.336-0.162,2.672-0.333,4.007-0.52l1.121-0.163
				c1.351-0.196,2.702-0.4,4.054-0.621l1.014-0.173c1.395-0.234,2.792-0.477,4.192-0.738l0.715-0.138
				c7.995-1.522,15.999-3.459,24.467-5.92l0.885-0.252c1.289-0.378,2.588-0.777,3.889-1.177l1.66-0.509
				c1.189-0.373,2.39-0.762,3.591-1.153l0.618-0.2c0.471-0.153,0.942-0.305,1.415-0.463c1.138-0.378,2.286-0.769,3.435-1.163
				l0.525-0.18c0.586-0.201,1.174-0.403,1.763-0.609c1.105-0.387,2.22-0.784,3.337-1.186c0.826-0.297,1.654-0.595,2.486-0.9
				c1.085-0.396,2.177-0.801,3.273-1.212c0.888-0.333,1.781-0.671,2.676-1.012c1.065-0.406,2.136-0.818,3.213-1.237
				c0.95-0.37,1.908-0.747,2.868-1.127c1.047-0.415,2.098-0.83,3.157-1.257c1.021-0.411,2.053-0.832,3.085-1.254l0.515-0.211
				c0.85-0.348,1.701-0.696,2.561-1.053c0.897-0.371,1.803-0.752,2.709-1.134l1.455-0.611c0.714-0.301,1.429-0.601,2.152-0.909
				c1.026-0.438,2.066-0.887,3.107-1.336l3.371-1.456c1.358-0.593,2.737-1.203,4.117-1.814l2.518-1.112
				c2.248-1,4.521-2.022,6.827-3.067c55.21-25.042,70.983-45.873,74.493-58.938c2.48-9.233-1.226-14.572-1.264-14.625l-0.582-0.815
				l1,0.065c7.689,0.501,9.398,10.495,9.535,11.388c0.313,0.804,2.922,8.463-5.51,21.168c-14.43,21.744-49.99,41.064-77.279,53.442
				C231.712,192.653,192.948,203.715,148.553,203.716z M33.85,139.635c-2.02,0-5.61,0.81-8.775,5.735
				c-2.484,3.866-1.414,8.334-1.403,8.378c12.58,34.121,62.049,43.372,76.911,45.395c68.34,9.293,110.909,1.637,189.793-34.142
				c27.095-12.29,62.41-31.453,76.783-52.956c8.541-12.779,5.531-20.405,5.5-20.481l-0.033-0.122
				c-0.013-0.097-1.312-9.281-7.734-10.509c1.002,1.925,2.934,6.965,0.895,14.555c-3.564,13.263-19.47,34.361-75.018,59.556
				c-2.308,1.047-4.583,2.069-6.833,3.071l-2.52,1.112c-1.381,0.611-2.762,1.222-4.121,1.816l-3.374,1.458
				c-1.042,0.45-2.084,0.9-3.112,1.338c-0.724,0.309-1.44,0.609-2.156,0.91l-1.455,0.612c-0.908,0.382-1.816,0.764-2.714,1.136
				c-0.86,0.357-1.714,0.706-2.566,1.055l-0.515,0.211c-1.034,0.422-2.068,0.845-3.09,1.256c-1.06,0.427-2.112,0.844-3.162,1.259
				c-0.962,0.38-1.921,0.759-2.874,1.129c-1.078,0.42-2.151,0.832-3.219,1.239c-0.897,0.343-1.792,0.681-2.682,1.014
				c-1.098,0.412-2.192,0.817-3.279,1.215c-0.834,0.305-1.664,0.605-2.492,0.902c-1.119,0.402-2.236,0.801-3.344,1.188
				c-0.591,0.207-1.18,0.409-1.768,0.61l-0.525,0.18c-1.152,0.395-2.303,0.787-3.443,1.166c-0.476,0.158-0.949,0.312-1.422,0.465
				l-0.617,0.2c-1.204,0.391-2.408,0.782-3.6,1.157l-1.665,0.509c-1.304,0.402-2.607,0.802-3.9,1.181l-0.889,0.254
				c-8.496,2.47-16.529,4.412-24.555,5.94l-0.718,0.139c-1.404,0.263-2.806,0.506-4.208,0.741l-1.018,0.173
				c-1.357,0.223-2.714,0.427-4.07,0.624l-1.127,0.163c-1.34,0.187-2.682,0.36-4.024,0.522l-1.157,0.14
				c-1.345,0.156-2.692,0.298-4.04,0.43l-1.118,0.106c-1.368,0.126-2.739,0.24-4.112,0.342l-1.024,0.072
				c-1.412,0.097-2.827,0.183-4.245,0.253l-0.843,0.037c-1.485,0.07-2.975,0.126-4.47,0.165l-0.515,0.01
				c-17.563,0.418-36.419-1.199-57.641-4.945c-43.99-7.762-59.319-20.847-64.432-30.457c-4.131-7.766-2.393-14.451-1.192-17.43
				C34.654,139.673,34.289,139.635,33.85,139.635z"/>
		</g>
		<g style="opacity:0.6;">
			<path style="fill:#FFFFFF;" d="M102.513,189.018c21.007,3.707,39.65,5.363,57.548,4.937c0.171-0.004,0.342-0.006,0.513-0.01
				c1.492-0.039,2.978-0.096,4.461-0.164c0.28-0.013,0.561-0.024,0.841-0.038c1.415-0.07,2.827-0.156,4.235-0.254
				c0.341-0.023,0.682-0.046,1.022-0.071c1.37-0.101,2.738-0.215,4.103-0.341c0.372-0.034,0.744-0.07,1.115-0.106
				c1.344-0.131,2.689-0.274,4.031-0.429c0.385-0.045,0.77-0.092,1.155-0.139c1.338-0.163,2.677-0.334,4.015-0.522
				c0.375-0.052,0.749-0.109,1.124-0.163c1.353-0.196,2.708-0.4,4.062-0.622c0.338-0.055,0.677-0.116,1.015-0.173
				c1.399-0.235,2.799-0.478,4.201-0.74c0.238-0.044,0.477-0.094,0.715-0.139c8.043-1.53,16.166-3.504,24.513-5.929
				c0.296-0.086,0.59-0.166,0.886-0.254c1.29-0.379,2.592-0.778,3.894-1.179c0.554-0.171,1.105-0.335,1.662-0.51
				c1.191-0.373,2.394-0.764,3.596-1.155c0.678-0.221,1.354-0.438,2.036-0.664c1.139-0.378,2.289-0.771,3.439-1.165
				c0.762-0.261,1.524-0.521,2.291-0.789c1.107-0.387,2.223-0.785,3.341-1.186c0.827-0.297,1.656-0.596,2.489-0.901
				c1.086-0.397,2.179-0.803,3.276-1.214c0.889-0.333,1.782-0.671,2.679-1.013c1.066-0.407,2.138-0.818,3.216-1.238
				c0.951-0.37,1.91-0.748,2.871-1.128c1.048-0.415,2.099-0.832,3.159-1.258c1.022-0.411,2.055-0.833,3.088-1.255
				c1.023-0.418,2.045-0.835,3.079-1.264c1.111-0.461,2.236-0.935,3.36-1.408c0.984-0.414,1.965-0.825,2.96-1.249
				c1.223-0.521,2.466-1.059,3.706-1.595c0.925-0.399,1.842-0.792,2.776-1.2c1.438-0.628,2.901-1.275,4.363-1.922
				c0.76-0.336,1.509-0.663,2.276-1.005c2.249-1.002,4.523-2.023,6.83-3.07c95.515-43.323,73.419-74.271,73.419-74.271
				c1.661,0.108,3.027,0.683,4.15,1.517c-1.365-1.782-3.301-3.221-6.033-3.4c0,0,22.096,30.948-73.419,74.271
				c-2.307,1.046-4.581,2.068-6.83,3.07c-0.767,0.342-1.516,0.668-2.276,1.005c-1.461,0.647-2.924,1.294-4.363,1.922
				c-0.934,0.408-1.851,0.8-2.776,1.2c-1.24,0.536-2.483,1.073-3.706,1.595c-0.995,0.424-1.975,0.834-2.96,1.249
				c-1.124,0.473-2.25,0.947-3.36,1.408c-1.034,0.429-2.056,0.846-3.079,1.264c-1.033,0.422-2.066,0.844-3.088,1.255
				c-1.06,0.426-2.111,0.843-3.159,1.258c-0.961,0.38-1.919,0.758-2.871,1.128c-1.078,0.419-2.15,0.831-3.216,1.238
				c-0.896,0.342-1.79,0.68-2.679,1.012c-1.097,0.411-2.19,0.816-3.276,1.214c-0.833,0.305-1.662,0.604-2.489,0.901
				c-1.118,0.401-2.234,0.799-3.341,1.186c-0.767,0.268-1.529,0.528-2.291,0.789c-1.15,0.394-2.299,0.786-3.439,1.165
				c-0.682,0.226-1.358,0.444-2.036,0.664c-1.202,0.391-2.405,0.782-3.596,1.155c-0.557,0.174-1.108,0.339-1.662,0.51
				c-1.302,0.401-2.604,0.8-3.894,1.179c-0.297,0.087-0.59,0.167-0.886,0.253c-8.347,2.425-16.47,4.399-24.513,5.929
				c-0.238,0.045-0.477,0.095-0.715,0.139c-1.402,0.262-2.802,0.505-4.201,0.74c-0.338,0.057-0.677,0.118-1.015,0.173
				c-1.355,0.222-2.709,0.426-4.062,0.622c-0.374,0.054-0.749,0.111-1.124,0.163c-1.338,0.187-2.677,0.359-4.015,0.522
				c-0.385,0.047-0.77,0.094-1.155,0.139c-1.342,0.156-2.687,0.298-4.031,0.429c-0.371,0.036-0.743,0.072-1.115,0.106
				c-1.365,0.126-2.733,0.24-4.103,0.341c-0.34,0.025-0.682,0.048-1.022,0.071c-1.408,0.097-2.82,0.183-4.235,0.253
				c-0.28,0.014-0.561,0.025-0.841,0.038c-1.482,0.068-2.969,0.125-4.46,0.164c-0.171,0.004-0.342,0.006-0.513,0.01
				c-17.898,0.425-36.541-1.23-57.548-4.937c-31.613-5.579-48.829-13.9-57.797-22.246C51.179,173.851,68.521,183.02,102.513,189.018
				z"/>
			<path style="fill:#FFFFFF;" d="M25.094,155.747c0,0-1.167-4.655,1.465-8.751c2.883-4.487,6.163-5.676,8.367-5.898
				c0.201-0.617,0.424-1.195,0.659-1.725c0,0-6.024-1.861-10.91,5.74c-2.632,4.096-1.465,8.751-1.465,8.751
				c1.622,4.399,5.328,11.69,13.221,19.272C29.82,166.245,26.58,159.78,25.094,155.747z"/>
		</g>
		<g>
			<path style="fill:#FFB715;" d="M41.618,163.702c-9.486-9.652-8.327-19.164-6.032-24.329c0,0-1.844-0.567-4.317,0.21
				C29.805,145.664,30.759,154.807,41.618,163.702z"/>
			<path style="fill:#FFB715;" d="M373.096,91.381c0,0-1.004-7.578-6.015-10.186c2.233,3.195,2.768,7.226,2.768,7.226
				s12.991,30.73-82.524,74.053c-76.523,34.709-119.931,43.718-190.053,34.18c-30.795-4.189-49.663-13.99-61.147-23.813
				c11.054,10.755,30.502,22.163,64.394,26.773c70.122,9.538,113.53,0.529,190.053-34.18
				C386.087,122.111,373.096,91.381,373.096,91.381z"/>
		</g>
	</g>
	<g>
		<g>
			<g>
				<path style="fill:#3F3F3F;" d="M195.506,120.007c-14.085,0-25.117-13.024-25.117-29.65s11.033-29.65,25.117-29.65
					c14.085,0,25.118,13.024,25.118,29.65S209.59,120.007,195.506,120.007z M195.506,67.155c-8.102,0-17.129,9.529-17.129,23.203
					c0,13.674,9.027,23.202,17.129,23.202c8.102,0,17.13-9.529,17.13-23.202C212.636,76.684,203.608,67.155,195.506,67.155z"/>
			</g>
			<g style="opacity:0.4;">
				<path style="fill:#3F3F3F;" d="M195.506,64.481c-9.463,0-20.008,10.627-20.008,25.877c0,15.249,10.544,25.876,20.008,25.876
					c9.464,0,20.008-10.627,20.008-25.876C215.514,75.108,204.97,64.481,195.506,64.481z M195.506,113.56
					c-8.102,0-17.129-9.529-17.129-23.202c0-13.674,9.027-23.203,17.129-23.203c8.102,0,17.13,9.529,17.13,23.203
					C212.636,104.031,203.608,113.56,195.506,113.56z"/>
				<path style="fill:#3F3F3F;" d="M195.506,60.708c-14.085,0-25.117,13.024-25.117,29.65s11.033,29.65,25.117,29.65
					c14.085,0,25.118-13.024,25.118-29.65S209.59,60.708,195.506,60.708z M195.943,118.993c-13.147,0-23.445-12.578-23.445-28.635
					s10.298-28.636,23.445-28.636c13.147,0,23.446,12.578,23.446,28.636S209.09,118.993,195.943,118.993z"/>
			</g>
			<path style="fill:#3F3F3F;" d="M211.695,71.24c0,0,6.96,5.72,6.96,20.262c0,14.542-13.068,23.456-13.068,23.456
				S217.2,104.686,217.2,91.531C217.2,77.731,211.695,71.24,211.695,71.24z"/>
		</g>
	</g>
	<g>
		<g>
			<path style="fill:#2B8DD6;" d="M133.964,66.862c0,0-7.1-2.172-18.503,0.084c-12.692,2.51-40.122,11.698-67.258,49.591
				c-10.489,14.647-12.617,22.836-12.617,22.836c-2.588,5.823-3.736,17.174,10.199,28.02l0,0
				C81.494,93.947,133.964,66.862,133.964,66.862z"/>
			<path style="fill:#145993;" d="M45.955,168.128l-0.462-0.36C29.603,155.402,33.56,142.76,35.151,139.18
				c0.062-0.264,2.244-8.369,12.665-22.921c11.348-15.846,35.214-43.384,67.552-49.78c11.391-2.254,18.44-0.161,18.735-0.072
				l1.115,0.341l-1.036,0.535c-0.523,0.27-52.746,27.871-87.97,100.318L45.955,168.128z M125.502,66.402
				c-2.753,0-6.109,0.25-9.95,1.008c-32.018,6.334-55.698,33.67-66.964,49.402c-10.301,14.383-12.522,22.599-12.543,22.68
				c-5.817,13.103,5.281,23.702,9.571,27.161c32.527-66.543,79.327-95.225,87.039-99.613
				C131.313,66.773,128.856,66.402,125.502,66.402z"/>
		</g>
		<path style="opacity:0.5;fill:#2B8DD6;" d="M118.055,66.496c2.206,1.65-0.069,6.469-6.807,12.06
			c-21.409,17.765-33.464,35.208-44.129,29.528c-7.486-3.987-2.902-10.602,0.497-14.194c-6.35,6.098-12.89,13.535-19.414,22.646
			c-10.489,14.647-12.617,22.836-12.617,22.836c-2.588,5.823-3.736,17.174,10.199,28.02c35.71-73.446,88.179-100.531,88.179-100.531
			S126.328,64.741,118.055,66.496z"/>
		<g>
			<path style="fill:#2B8DD6;" d="M246.21,106.775v-0.001c-1.86,0.448-3.702,0.847-5.523,1.19
				c-6.254,1.178-8.253-6.607-24.157-10.196c0,0-65.443,7.284-101.357,91.645c15.249,2.09,29.345,2.983,43.006,2.66
				c0.171-0.004,0.342-0.006,0.513-0.01c1.492-0.039,2.978-0.096,4.46-0.164c0.28-0.013,0.561-0.024,0.841-0.038
				c1.415-0.07,2.826-0.156,4.235-0.253c0.341-0.023,0.682-0.046,1.022-0.071c1.37-0.101,2.737-0.215,4.103-0.341
				c0.372-0.034,0.743-0.07,1.115-0.106c1.345-0.131,2.688-0.274,4.031-0.429c0.385-0.045,0.77-0.092,1.155-0.139
				c1.339-0.162,2.677-0.334,4.015-0.522c0.374-0.052,0.749-0.109,1.124-0.163c1.354-0.196,2.707-0.401,4.062-0.622
				c0.338-0.055,0.677-0.116,1.015-0.173c1.399-0.235,2.798-0.478,4.201-0.74c0.238-0.045,0.477-0.094,0.715-0.139
				c8.044-1.529,16.165-3.505,24.513-5.929c0.296-0.086,0.59-0.166,0.886-0.253c1.29-0.379,2.592-0.779,3.894-1.179
				c0.555-0.171,1.105-0.335,1.662-0.51c1.191-0.373,2.393-0.764,3.596-1.155c0.678-0.221,1.354-0.438,2.036-0.664
				c1.139-0.378,2.288-0.77,3.439-1.165c0.762-0.261,1.524-0.521,2.291-0.789c1.107-0.387,2.223-0.785,3.341-1.186
				c0.827-0.297,1.656-0.596,2.489-0.901c1.086-0.397,2.179-0.803,3.276-1.214c0.889-0.333,1.782-0.671,2.679-1.012
				c1.067-0.407,2.138-0.819,3.216-1.238c0,0,1.333-7.505,1.435-35.051C253.642,108.369,246.21,106.775,246.21,106.775z"/>
			<path style="fill:#145993;" d="M152.686,192.612c-11.88,0-24.232-0.899-37.578-2.729c-0.147-0.019-0.276-0.108-0.349-0.236
				c-0.073-0.129-0.082-0.285-0.024-0.421c18.602-43.695,45.257-66.36,64.341-77.679c20.699-12.277,37.236-14.232,37.401-14.251
				c0.051-0.007,0.105-0.004,0.157,0.009c8.636,1.948,13.225,5.129,16.576,7.451c2.825,1.958,4.694,3.249,7.389,2.742
				c1.753-0.33,3.603-0.729,5.5-1.186c0.069-0.016,0.141-0.016,0.211-0.002c0.319,0.069,7.808,1.993,7.706,29.606
				c-0.102,27.273-1.388,34.824-1.443,35.132c-0.029,0.162-0.141,0.299-0.295,0.359c-1.079,0.42-2.151,0.832-3.219,1.239
				c-0.897,0.343-1.791,0.681-2.681,1.014c-1.098,0.412-2.192,0.817-3.279,1.215c-0.835,0.305-1.664,0.605-2.492,0.902
				c-1.12,0.402-2.236,0.801-3.344,1.188c-0.617,0.216-1.231,0.427-1.844,0.636l-0.449,0.154c-1.152,0.395-2.303,0.788-3.443,1.166
				c-0.487,0.161-0.97,0.318-1.454,0.475l-0.585,0.19c-1.204,0.391-2.408,0.782-3.6,1.157l-1.665,0.509
				c-1.304,0.402-2.607,0.802-3.9,1.181l-0.889,0.254c-8.517,2.474-16.549,4.418-24.555,5.94l-0.718,0.139
				c-1.404,0.263-2.806,0.506-4.208,0.741l-1.018,0.173c-1.357,0.223-2.714,0.428-4.07,0.624l-1.127,0.163
				c-1.341,0.187-2.682,0.36-4.024,0.522l-1.157,0.14c-1.346,0.156-2.692,0.299-4.04,0.43l-1.117,0.106
				c-1.369,0.126-2.739,0.24-4.112,0.342l-1.024,0.072c-1.413,0.097-2.827,0.183-4.245,0.253l-0.843,0.037
				c-1.486,0.07-2.974,0.126-4.47,0.165l-0.515,0.01C156.365,192.59,154.531,192.612,152.686,192.612z M115.855,189.026
				c15.125,2.048,28.97,2.89,42.313,2.572l0.511-0.01c1.489-0.039,2.972-0.096,4.452-0.163l0.84-0.037
				c1.413-0.07,2.82-0.157,4.226-0.253l1.02-0.071c1.367-0.1,2.731-0.214,4.095-0.34l1.112-0.106
				c1.342-0.13,2.682-0.273,4.023-0.429l1.152-0.138c1.336-0.162,2.672-0.333,4.007-0.52l1.121-0.163
				c1.351-0.195,2.702-0.4,4.054-0.621l1.014-0.173c1.396-0.234,2.792-0.477,4.192-0.738l0.715-0.138
				c7.974-1.517,15.978-3.453,24.467-5.92l0.885-0.252c1.289-0.378,2.588-0.777,3.889-1.177l1.66-0.509
				c1.189-0.373,2.39-0.762,3.591-1.153l0.586-0.19c0.481-0.156,0.963-0.313,1.447-0.473c1.138-0.377,2.286-0.769,3.435-1.163
				l0.449-0.155c0.611-0.209,1.223-0.418,1.838-0.634c1.106-0.387,2.22-0.784,3.337-1.186c0.826-0.297,1.654-0.595,2.486-0.9
				c1.085-0.396,2.176-0.801,3.273-1.212c0.888-0.333,1.78-0.671,2.676-1.012c0.981-0.374,1.967-0.752,2.958-1.137
				c0.222-1.544,1.297-10.257,1.388-34.709c0.093-24.982-6.069-28.316-6.877-28.644c-1.871,0.447-3.691,0.838-5.413,1.163
				c-3.092,0.583-5.194-0.877-8.106-2.895c-3.277-2.27-7.76-5.377-16.163-7.287c-1.245,0.159-17.182,2.382-36.99,14.141
				C160.652,123.59,134.334,145.966,115.855,189.026z"/>
		</g>
		<g>
			
				<ellipse transform="matrix(0.3693 -0.9293 0.9293 0.3693 -84.2872 133.8849)" style="opacity:0.5;fill:#A5A5A5;" cx="56.497" cy="129.041" rx="20.334" ry="15.091"/>
			<g>
				<path style="fill:#FFB715;" d="M68.822,133.356c-4.148,10.436-13.789,16.401-21.534,13.323
					c-7.745-3.078-10.661-14.034-6.514-24.47c4.148-10.436,13.789-16.401,21.534-13.323
					C70.053,111.964,72.969,122.92,68.822,133.356z"/>
				<path style="fill:#EA8000;" d="M51.584,147.968c-1.54,0-3.043-0.281-4.471-0.848c-3.889-1.546-6.73-5.024-8-9.794
					c-1.257-4.72-0.823-10.151,1.221-15.293c2.043-5.141,5.456-9.388,9.609-11.958c4.197-2.599,8.651-3.176,12.541-1.631
					c7.976,3.17,11.017,14.423,6.78,25.087l0,0c-2.044,5.141-5.456,9.388-9.61,11.958C56.997,147.133,54.237,147.968,51.584,147.968
					z M58.015,108.548c-2.48,0-5.07,0.788-7.573,2.336c-3.981,2.463-7.258,6.547-9.226,11.5c-1.969,4.954-2.39,10.174-1.186,14.697
					c1.191,4.473,3.83,7.724,7.433,9.156c3.602,1.432,7.754,0.88,11.69-1.556c3.981-2.463,7.258-6.547,9.226-11.5
					c4.044-10.176,1.241-20.877-6.248-23.853C60.821,108.806,59.436,108.548,58.015,108.548z"/>
			</g>
			<path style="fill:#FFB715;" d="M62.308,108.886c-7.745-3.078-17.386,2.887-21.534,13.323c-4.148,10.436-1.231,21.392,6.514,24.47
				c7.745,3.078,17.386-2.887,21.534-13.323C72.969,122.92,70.053,111.964,62.308,108.886z M65.056,136.988
				c-7.615,11.782-18.921,7.548-14.671,7.347c13.623-0.647,18.253-17.474,16.416-25.829
				C65.465,112.433,72.672,125.207,65.056,136.988z"/>
			<g>
				<path style="fill:#FFF9DC;" d="M64.188,131.514c-3.463,8.712-11.511,13.691-17.976,11.122c-6.465-2.57-8.9-11.715-5.438-20.427
					c3.462-8.712,11.511-13.692,17.976-11.122C65.216,113.656,67.651,122.802,64.188,131.514z"/>
				<path style="fill:#FFC255;" d="M49.798,143.791c-1.295,0-2.56-0.236-3.761-0.713c-6.699-2.663-9.257-12.103-5.704-21.045
					c1.712-4.307,4.572-7.866,8.054-10.019c3.526-2.181,7.269-2.666,10.54-1.368c6.698,2.663,9.257,12.103,5.704,21.045l0,0
					c-1.712,4.307-4.572,7.866-8.054,10.02C54.346,143.09,52.028,143.791,49.798,143.791z M55.167,110.883
					c-2.057,0-4.204,0.653-6.281,1.938c-3.309,2.048-6.033,5.444-7.67,9.563c-3.361,8.454-1.041,17.342,5.171,19.811
					c2.983,1.186,6.425,0.726,9.689-1.292c3.309-2.048,6.033-5.444,7.67-9.563l0,0c3.36-8.455,1.04-17.342-5.171-19.811
					C57.49,111.097,56.343,110.883,55.167,110.883z"/>
			</g>
			<path style="fill:#FFE0A1;" d="M58.751,111.087c-6.466-2.57-14.514,2.41-17.976,11.122c-3.462,8.712-1.028,17.858,5.438,20.427
				c6.466,2.57,14.514-2.41,17.976-11.122C67.651,122.802,65.216,113.657,58.751,111.087z M60.185,129.677
				c-2.719,6.841-9.039,10.751-14.116,8.734c-5.077-2.018-6.989-9.2-4.27-16.041c2.719-6.841,9.039-10.751,14.116-8.734
				S62.904,122.836,60.185,129.677z"/>
		</g>
		<g>
			<polygon style="fill:#EFEFEF;" points="231.99,150.955 221.947,145.58 214.396,153.744 215.74,142.258 205.697,136.883 
				216.57,135.159 217.914,123.673 223.29,134.094 234.164,132.37 226.613,140.534 			"/>
			<polygon style="fill:#EFEFEF;" points="207.51,171.837 201.662,168.883 197.451,173.669 198.048,167.057 192.2,164.102 
				198.416,162.97 199.013,156.358 202.258,162.27 208.475,161.138 204.264,165.925 			"/>
		</g>
		<path style="opacity:0.5;fill:#2B8DD6;" d="M246.21,106.775v-0.001c-1.86,0.448-3.702,0.847-5.523,1.19
			c-6.254,1.178-8.253-6.607-24.157-10.196c0,0-65.443,7.284-101.357,91.645c15.249,2.09,29.345,2.983,43.006,2.66
			c0.171-0.004,0.342-0.006,0.513-0.01c1.492-0.039,2.978-0.096,4.46-0.164c0.28-0.013,0.561-0.024,0.841-0.038
			c1.415-0.07,2.826-0.156,4.235-0.253c0.341-0.023,0.682-0.046,1.022-0.071c1.37-0.101,2.737-0.215,4.103-0.341
			c0.372-0.034,0.743-0.07,1.115-0.106c1.345-0.131,2.689-0.274,4.031-0.429c0.385-0.045,0.77-0.092,1.155-0.139
			c1.339-0.162,2.677-0.334,4.015-0.522c0.375-0.052,0.749-0.109,1.124-0.163c1.354-0.196,2.707-0.401,4.062-0.622
			c0.338-0.055,0.677-0.116,1.015-0.173c1.399-0.235,2.798-0.478,4.201-0.74c0.238-0.045,0.477-0.094,0.715-0.139
			c8.044-1.529,16.165-3.505,24.513-5.929c0.296-0.086,0.59-0.166,0.886-0.253c1.29-0.379,2.592-0.779,3.894-1.179
			c0.555-0.171,1.105-0.335,1.662-0.51c1.191-0.373,2.393-0.764,3.596-1.155c0.678-0.221,1.354-0.438,2.036-0.664
			c1.139-0.378,2.288-0.771,3.439-1.165c0.762-0.261,1.524-0.521,2.291-0.789c1.107-0.387,2.223-0.785,3.341-1.186
			c0.827-0.297,1.656-0.596,2.489-0.901c1.086-0.397,2.179-0.803,3.276-1.214c0.889-0.333,1.782-0.671,2.679-1.012
			c1.067-0.407,2.138-0.819,3.216-1.238c0,0,1.333-7.505,1.435-35.051C253.642,108.369,246.21,106.775,246.21,106.775z
			 M220.624,173.669c-26.317,12.755-82.974,14.756-87.904,3.349c-5.188-12.005,19.513-47.636,52.304-66.545
			c24.092-13.893,41.879-7.815,52.264,4.486C246.181,125.49,249.523,159.663,220.624,173.669z"/>
		<g>
			
				<ellipse transform="matrix(0.3693 -0.9293 0.9293 0.3693 -50.3019 252.5373)" style="opacity:0.5;fill:#A5A5A5;" cx="160.907" cy="163.329" rx="27.865" ry="20.679"/>
			<g>
				<path style="fill:#FFB715;" d="M177.023,168.97c-5.423,13.646-18.03,21.446-28.157,17.421
					c-10.127-4.025-13.94-18.35-8.517-31.996c5.423-13.646,18.03-21.446,28.157-17.421
					C178.634,140.999,182.447,155.324,177.023,168.97z"/>
				<path style="fill:#EA8000;" d="M154.482,187.931c-1.995,0-3.942-0.364-5.791-1.098c-5.041-2.004-8.725-6.517-10.374-12.709
					c-1.635-6.142-1.07-13.21,1.591-19.904c2.66-6.694,7.102-12.223,12.506-15.566c5.45-3.371,11.228-4.124,16.268-2.121
					c5.041,2.004,8.726,6.517,10.374,12.709c1.635,6.142,1.07,13.21-1.59,19.904l0,0c-2.661,6.695-7.102,12.222-12.506,15.566
					C161.508,186.846,157.926,187.931,154.482,187.931z M162.892,136.385c-3.27,0-6.682,1.037-9.978,3.076
					c-5.232,3.237-9.538,8.603-12.123,15.109c-2.586,6.506-3.138,13.363-1.555,19.308c1.569,5.895,5.051,10.181,9.806,12.071
					c4.754,1.892,10.23,1.163,15.417-2.046c5.232-3.238,9.538-8.603,12.123-15.109l0,0c2.586-6.506,3.138-13.363,1.555-19.308
					c-1.569-5.895-5.052-10.182-9.807-12.071C166.598,136.727,164.768,136.385,162.892,136.385z"/>
			</g>
			<path style="fill:#FFB715;" d="M168.506,136.974c-10.127-4.025-22.734,3.775-28.157,17.421
				c-5.423,13.646-1.61,27.971,8.517,31.996c10.127,4.025,22.734-3.775,28.157-17.421
				C182.447,155.324,178.634,140.999,168.506,136.974z M172.1,173.72c-9.958,15.406-24.741,9.87-19.184,9.606
				c17.813-0.846,23.868-22.848,21.465-33.774C172.634,141.612,182.058,158.315,172.1,173.72z"/>
			<g>
				
					<ellipse transform="matrix(0.3693 -0.9293 0.9293 0.3693 -50.9642 245.861)" style="fill:#FFF9DC;" cx="155.657" cy="160.479" rx="22.196" ry="16.472"/>
				<path style="fill:#FFC255;" d="M152.107,182.459c-1.644,0-3.268-0.294-4.822-0.912c-8.684-3.452-11.993-15.71-7.376-27.327
					c2.227-5.604,5.946-10.232,10.472-13.033c4.571-2.827,9.419-3.457,13.651-1.777c4.232,1.682,7.324,5.468,8.707,10.662
					c1.369,5.143,0.897,11.061-1.33,16.665l0,0C167.616,176.274,159.644,182.459,152.107,182.459z M159.168,139.439
					c-2.715,0-5.55,0.861-8.289,2.556c-4.354,2.693-7.937,7.159-10.089,12.576c-4.423,11.13-1.353,22.835,6.844,26.093
					c8.197,3.259,18.465-3.147,22.889-14.277l0,0c2.152-5.415,2.612-11.123,1.296-16.07c-1.303-4.896-4.194-8.455-8.139-10.023
					C162.242,139.722,160.725,139.439,159.168,139.439z"/>
			</g>
			<path style="fill:#FFE0A1;" d="M163.855,139.852c-8.454-3.36-18.978,3.151-23.505,14.543c-4.527,11.392-1.344,23.35,7.11,26.71
				c8.454,3.36,18.978-3.151,23.505-14.543C175.492,155.17,172.309,143.212,163.855,139.852z M165.73,164.16
				c-3.555,8.945-11.819,14.059-18.458,11.42c-6.639-2.638-9.139-12.029-5.583-20.975c3.555-8.946,11.819-14.059,18.458-11.42
				C166.786,145.824,169.286,155.214,165.73,164.16z"/>
		</g>
		<g>
			<g>
				<path style="fill:#DB3423;" d="M206.079,84.356c7.581-4.144,8.653-0.416,8.741-0.038c-0.547-2.547-1.69-4.146-7.435-6.731
					c0,0-22.523-8.178-36.576-11.792c-14.053-3.614-24.906-6.7-36.845,1.067c0,0-52.469,27.085-88.179,100.531
					c9.612,7.481,26.399,14.722,54.846,19.742c2.614,0.461,5.183,0.883,7.723,1.278C127.528,123.405,198.104,88.714,206.079,84.356z
					"/>
				<path style="fill:#AA0F07;" d="M108.692,188.947l-0.411-0.064c-2.715-0.421-5.244-0.84-7.733-1.28
					c-25.374-4.477-43.898-11.15-55.055-19.834l-0.304-0.236l0.168-0.346c18.48-38.008,41.517-63.37,57.589-77.953
					c17.426-15.81,30.668-22.726,30.799-22.794c11.764-7.654,22.5-4.888,36.093-1.385l1.089,0.28
					c13.915,3.579,36.395,11.725,36.619,11.806c5.893,2.65,7.146,4.323,7.737,7.077l-0.927,0.208
					c-0.033-0.146-0.245-0.889-1.125-1.283c-0.988-0.442-2.992-0.52-6.925,1.63l0,0c-0.376,0.206-0.891,0.479-1.532,0.818
					c-50.137,26.564-84.218,63.128-95.966,102.957L108.692,188.947z M46.381,167.254c11.066,8.473,29.343,15.004,54.332,19.414
					c2.356,0.417,4.75,0.814,7.303,1.213c11.928-39.922,46.115-76.533,96.314-103.129c0.637-0.338,1.148-0.608,1.521-0.812
					c3.337-1.824,5.9-2.407,7.625-1.724c-0.906-1.342-2.641-2.555-6.286-4.195c-0.193-0.069-22.629-8.198-36.499-11.766l-1.089-0.28
					c-13.366-3.445-23.925-6.165-35.379,1.285C133.658,67.554,81.602,95.065,46.381,167.254z"/>
			</g>
			<g>
				<path style="fill:#AA1111;" d="M214.82,84.318c-0.088-0.379-1.159-4.106-8.741,0.038c-7.975,4.359-78.551,39.049-97.725,104.057
					c2.297,0.357,4.571,0.692,6.819,1c35.915-84.361,101.357-91.645,101.357-91.645s-0.461-6.15-1.23-10.608
					C215.112,86.068,214.997,85.144,214.82,84.318z"/>
				<path style="fill:#AA1111;" d="M115.468,189.932l-0.36-0.049c-2.251-0.308-4.528-0.644-6.828-1l-0.536-0.083l0.154-0.52
					c11.82-40.076,46.067-76.843,96.432-103.528c0.637-0.338,1.148-0.608,1.521-0.812c3.432-1.876,6.045-2.436,7.769-1.663
					c1.289,0.578,1.61,1.714,1.662,1.934l0.001,0.008c0.112,0.522,0.2,1.084,0.297,1.701c0.057,0.366,0.117,0.751,0.188,1.16
					c0.764,4.43,1.231,10.591,1.235,10.653l0.034,0.456l-0.456,0.051c-0.163,0.018-16.535,1.962-37.066,14.151
					c-18.948,11.248-45.415,33.773-63.907,77.208L115.468,189.932z M108.964,188.027c1.989,0.306,3.962,0.596,5.914,0.865
					c18.596-43.476,45.163-66.056,64.199-77.345c18.783-11.14,34.14-13.782,36.944-14.19c-0.122-1.492-0.551-6.42-1.188-10.116
					c-0.072-0.414-0.133-0.804-0.19-1.174c-0.094-0.597-0.178-1.139-0.286-1.645c-0.036-0.151-0.25-0.887-1.124-1.279
					c-0.988-0.442-2.992-0.52-6.925,1.63c-0.376,0.206-0.891,0.479-1.532,0.818C154.855,112.039,120.853,148.399,108.964,188.027z"
					/>
			</g>
			<path style="fill:#DB3423;" d="M214.82,84.318c-0.088-0.379-1.159-4.106-8.741,0.038c-7.975,4.359-78.551,39.049-97.725,104.057
				c2.297,0.357,4.571,0.692,6.819,1c35.915-84.361,101.357-91.645,101.357-91.645s-0.461-6.15-1.23-10.608
				C215.112,86.068,214.997,85.144,214.82,84.318z"/>
			<path style="fill:#DB3423;" d="M215.3,87.16c-0.188-1.092-0.303-2.016-0.481-2.842c-1.304,20.425-63.116,13.45-102.776,102.559
				c-1.014-0.139-2.051-0.301-3.075-0.451c-0.207,0.661-0.418,1.32-0.615,1.987c2.297,0.357,4.571,0.692,6.819,1
				c35.915-84.361,101.357-91.645,101.357-91.645S216.069,91.619,215.3,87.16z"/>
			<path style="fill:#DB3423;" d="M207.385,77.587c0,0-22.523-8.178-36.576-11.792c-14.053-3.614-24.906-6.7-36.845,1.067
				c0,0-0.66,0.341-1.874,1.045c17.935-9.885,62.573,2.364,38.299,19.662c-19.616,13.978-32.618,21.31-56.526,56.14
				c-15.039,21.91-55.395,14.022-46.317-13.379c-7.543,10.762-14.956,23.069-21.761,37.064c9.612,7.481,26.399,14.722,54.846,19.742
				c2.614,0.461,5.183,0.883,7.723,1.278c19.174-65.009,89.75-99.699,97.725-104.057c7.581-4.144,8.653-0.416,8.741-0.038
				C214.273,81.771,213.13,80.172,207.385,77.587z"/>
			<path style="opacity:0.5;fill:#DB3423;" d="M81.158,117.304c25.465-33.494,56.411-53.044,72.485-50.44
				c16.075,2.604-23.408,19.163-52.523,59.004C81.761,152.357,64.172,139.645,81.158,117.304z"/>
			<g>
				<path style="fill:#DB3423;" d="M41.986,144.953c11.821,16.73,45.297,44.486,127.943,43.154
					c12.899-0.208,16.298,21.346-11.243,23.339c-50.333,3.643-113.707-10.819-132.075-45.438
					C14.907,143.948,32.716,131.833,41.986,144.953z"/>
				<path style="fill:#AA0F07;" d="M143.395,212.463c-47.371,0.001-100.671-15.074-117.204-46.233
					c-6.78-12.78-3.824-22.319,1.792-25.773c3.959-2.436,9.942-2.072,14.39,4.222c28.381,40.165,98.649,43.43,127.548,42.953
					c5.546-0.093,9.925,3.872,10.161,9.215c0.412,9.314-10.432,14.282-21.362,15.073
					C153.722,212.282,148.593,212.463,143.395,212.463z M32.886,140.021c-1.609,0-3.125,0.458-4.404,1.245
					c-5.251,3.23-7.945,12.281-1.451,24.519c18.157,34.222,81.369,48.829,131.621,45.187c10.471-0.758,20.866-5.406,20.482-14.082
					c-0.211-4.764-4.079-8.31-9.028-8.31c-0.057,0-0.112,0.001-0.168,0.002c-36.458,0.578-66.971-4.409-90.73-14.845
					c-20.931-9.195-32.005-20.579-37.609-28.511l0,0C38.968,141.504,35.779,140.021,32.886,140.021z"/>
			</g>
			<path style="opacity:0.5;fill:#DB3423;" d="M38.896,150.144c12.149,17.194,37.067,42.365,122.011,43.329
				c14.591,0.166,16.694-2.712,18.271,1.022c-1.158-3.675-4.573-6.463-9.248-6.388c-82.646,1.332-116.122-26.424-127.943-43.154
				c-5.1-7.218-12.776-6.786-16.709-1.273C29.57,140.298,34.459,143.865,38.896,150.144z"/>
			<path style="fill:#DB3423;" d="M158.686,203.077c-50.333,3.643-113.707-10.819-132.075-45.438
				c-1.767-3.331-2.852-6.431-3.405-9.256c-1.056,4.523-0.344,10.559,3.405,17.625c18.368,34.619,81.742,49.081,132.075,45.438
				c18.811-1.361,23.182-11.845,19.957-18.291C176.45,197.878,170.351,202.233,158.686,203.077z"/>
		</g>
		<path style="opacity:0.5;fill:#2B8DD6;" d="M162.442,131.09c10.247-14.926,45.252-34.029,58.182-23.005
			c12.93,11.023-15.527,23.649-36.267,36.868C184.357,144.953,180.498,129.049,162.442,131.09z"/>
		<path style="opacity:0.5;fill:#2B8DD6;" d="M68.608,95.015c0,0,20.718-21.559,44.291-25.731
			c4.303-0.761-23.888,15.7-40.491,31.609C65.776,107.247,62.373,102.602,68.608,95.015z"/>
	</g>
	<g>
		<g>
			<g>
				<path style="fill:#DB3423;" d="M363.991,80.342c0,0,0.779-24.33-14.81-28.929c-1.717-0.507-3.424-0.979-5.127-1.433
					c0.699,0.249,10.135,4.04-15.55,18.973c-24.901,14.478-55.455,31.362-82.295,37.821v0.001c0,0,7.432,1.594,7.33,29.139
					c-0.102,27.546-1.435,35.051-1.435,35.051c0.952-0.37,1.91-0.748,2.871-1.128c1.049-0.415,2.099-0.832,3.159-1.258
					c1.022-0.411,2.054-0.833,3.088-1.255c1.023-0.418,2.045-0.835,3.079-1.264c1.111-0.461,2.236-0.935,3.36-1.408
					c0.984-0.414,1.964-0.825,2.96-1.249c1.224-0.521,2.466-1.059,3.706-1.595c0.925-0.4,1.842-0.792,2.776-1.2
					c1.439-0.628,2.901-1.275,4.363-1.922c0.761-0.336,1.509-0.663,2.276-1.005c2.249-1.002,4.523-2.023,6.83-3.07
					C386.087,111.29,363.991,80.342,363.991,80.342z"/>
				<path style="fill:#AA0F07;" d="M251.49,171.714l0.147-0.831c0.013-0.075,1.327-7.824,1.428-34.97
					c0.098-26.597-6.892-28.657-6.963-28.674l-1.876-0.47l1.872-0.454c25.799-6.209,54.737-21.823,82.167-37.772
					c15.713-9.135,17.749-13.849,17.565-15.847c-0.143-1.552-1.638-2.162-1.936-2.268l0.282-0.906
					c1.908,0.51,3.589,0.98,5.139,1.437c15.096,4.454,15.18,27.131,15.153,29.244c0.6,0.926,3.723,6.333,1.317,15.288
					c-3.564,13.263-19.47,34.361-75.018,59.556c-2.308,1.047-4.583,2.069-6.833,3.071l-2.277,1.005
					c-1.462,0.648-2.926,1.295-4.365,1.923l-3.411,1.474c-1.03,0.444-2.059,0.889-3.075,1.322c-0.724,0.309-1.44,0.609-2.156,0.91
					l-0.805,0.34c-1.125,0.473-2.252,0.947-3.363,1.408c-0.872,0.362-1.735,0.714-2.597,1.067l-0.485,0.199
					c-1.034,0.422-2.067,0.844-3.09,1.256c-1.062,0.427-2.113,0.844-3.162,1.259c-0.962,0.38-1.921,0.759-2.874,1.129
					L251.49,171.714z M247.478,106.953c2.174,1.7,6.616,7.77,6.537,28.964c-0.084,22.706-0.991,31.743-1.323,34.31
					c0.701-0.274,1.404-0.551,2.109-0.83c1.048-0.415,2.098-0.83,3.157-1.257c1.021-0.412,2.052-0.832,3.085-1.254l0.484-0.199
					c0.861-0.352,1.722-0.703,2.592-1.065c1.11-0.461,2.234-0.933,3.358-1.406l0.806-0.339c0.714-0.301,1.429-0.601,2.152-0.909
					c1.014-0.432,2.042-0.876,3.07-1.32l3.408-1.472c1.438-0.628,2.899-1.274,4.36-1.921l2.275-1.005
					c2.248-1,4.521-2.021,6.827-3.067c55.21-25.042,70.983-45.873,74.493-58.938c2.48-9.233-1.226-14.572-1.264-14.624l-0.093-0.131
					l0.005-0.16c0.007-0.24,0.584-24.017-14.47-28.459c-0.888-0.262-1.82-0.529-2.814-0.804c0.277,0.413,0.487,0.922,0.544,1.544
					c0.364,3.949-5.703,9.587-18.033,16.756C301.659,85.111,273.1,100.535,247.478,106.953z"/>
			</g>
			<g>
				<path style="fill:#EFEFEF;" d="M350.85,52.015c-0.536-0.224-1.087-0.431-1.669-0.602c-1.717-0.507-3.424-0.979-5.127-1.433
					c0.613,0.218,7.926,3.155-7.529,13.915c-1.484,9.787-7.341,30.566-30.32,52.762c-20.17,19.483-40.639,29.901-52.892,34.914
					c-0.079,2.893-0.173,5.401-0.274,7.554c12.912-4.255,38.3-15.211,61.965-40.617c0,0-3.379,16.528-18.768,33.48
					c8.294-3.911,15.638-7.716,22.123-11.4c8.699-12.674,17.994-30.561,24.896-50.48C350.446,69.359,351.355,57.951,350.85,52.015z"
					/>
				<path style="fill:#AA0F07;" d="M253.04,159.6c-0.102,0-0.204-0.033-0.287-0.096c-0.125-0.095-0.195-0.245-0.187-0.401
					c0.107-2.305,0.199-4.844,0.273-7.544c0.005-0.188,0.121-0.355,0.295-0.427c13.216-5.407,33.093-15.837,52.742-34.816
					c22.65-21.88,28.631-42.279,30.18-52.492c0.02-0.129,0.091-0.244,0.198-0.318c8.333-5.803,9.801-9.137,9.564-10.912
					c-0.197-1.478-1.637-2.063-1.924-2.166c-0.24-0.085-0.369-0.345-0.294-0.588c0.077-0.244,0.332-0.379,0.576-0.318
					c1.908,0.51,3.589,0.98,5.139,1.437c0.542,0.16,1.087,0.356,1.717,0.619c0.164,0.069,0.275,0.222,0.29,0.399
					c0.508,5.97-0.401,17.46-7.618,38.289c-6.332,18.273-15.428,36.714-24.954,50.593c-0.041,0.059-0.094,0.109-0.157,0.144
					c-6.66,3.784-14.114,7.625-22.155,11.417c-0.204,0.095-0.45,0.035-0.584-0.147c-0.135-0.183-0.122-0.434,0.03-0.602
					c12.224-13.466,16.856-26.798,18.198-31.49c-23.324,24.478-48.079,35.174-60.894,39.397
					C253.141,159.592,253.09,159.6,253.04,159.6z M253.78,151.893c-0.065,2.326-0.144,4.528-0.234,6.563
					c13.144-4.421,37.957-15.413,61.111-40.273c0.145-0.156,0.376-0.193,0.565-0.098c0.189,0.097,0.29,0.309,0.248,0.518
					c-0.033,0.16-3.341,15.717-17.337,31.959c7.182-3.438,13.865-6.909,19.897-10.332c9.457-13.801,18.486-32.119,24.777-50.277
					c7.048-20.338,8.039-31.65,7.593-37.608c-0.486-0.196-0.922-0.349-1.353-0.476c-0.889-0.263-1.822-0.529-2.816-0.805
					c0.256,0.381,0.455,0.845,0.529,1.404c0.391,2.94-2.904,6.876-9.796,11.701c-1.615,10.397-7.725,30.9-30.429,52.831
					C286.92,135.947,267.072,146.421,253.78,151.893z"/>
			</g>
		</g>
		<path style="fill:#898989;" d="M363.991,80.342c0,0,0.779-24.33-14.81-28.929c-1.717-0.507-3.424-0.979-5.127-1.433
			c0.699,0.249,10.135,4.04-15.55,18.973c-24.902,14.478-55.455,31.362-82.295,37.821v0.001c0,0,7.432,1.594,7.33,29.139
			c-0.102,27.546-1.435,35.051-1.435,35.051c0.952-0.37,1.91-0.748,2.871-1.128c1.049-0.415,2.099-0.832,3.159-1.258
			c1.022-0.411,2.054-0.833,3.088-1.255c1.023-0.418,2.045-0.835,3.079-1.264c1.111-0.461,2.236-0.935,3.36-1.408
			c0.984-0.414,1.964-0.825,2.96-1.249c1.224-0.521,2.466-1.059,3.706-1.595c0.925-0.4,1.842-0.792,2.776-1.2
			c1.439-0.628,2.901-1.275,4.363-1.922c0.761-0.336,1.509-0.663,2.276-1.005c2.249-1.002,4.523-2.023,6.83-3.07
			C386.087,111.29,363.991,80.342,363.991,80.342z M328.571,123.673c-70.422,35.709-87.062-6.211-54.026-21.757
			C308.5,85.94,339,68.284,347.873,60.036C356.746,51.789,374.236,100.518,328.571,123.673z"/>
		<path style="opacity:0.6;fill:#FFFFFF;" d="M282.802,103.682c23.875-12.334,50.314-28.361,60.454-35.535
			c10.141-7.174,3.143,18.491-30.227,33.859C279.658,117.373,262.822,114.003,282.802,103.682z"/>
	</g>
	<g>
		<path style="fill:#A5A5A5;" d="M348.054,85.579c1.155,9.922,7.508,17.2,14.189,16.255c6.682-0.945,11.161-9.754,10.006-19.676
			c-1.155-9.922-7.508-17.2-14.189-16.255C351.379,66.847,346.899,75.657,348.054,85.579z"/>
		<g>
			<path style="fill:#FFB715;" d="M350.442,84.791c1.067,9.163,6.933,15.883,13.103,15.011c6.17-0.872,10.307-9.007,9.24-18.17
				c-1.066-9.163-6.933-15.883-13.103-15.011C353.512,67.493,349.375,75.629,350.442,84.791z"/>
			<path style="fill:#EA8000;" d="M362.461,100.353c-1.987,0-3.966-0.724-5.782-2.125c-3.544-2.734-6.052-7.737-6.709-13.382l0,0
				c-1.095-9.402,3.232-17.788,9.646-18.695c2.368-0.33,4.765,0.372,6.932,2.044c3.544,2.734,6.052,7.737,6.709,13.383
				c1.094,9.402-3.233,17.788-9.646,18.695C363.228,100.326,362.844,100.353,362.461,100.353z M360.761,67.02
				c-0.338,0-0.675,0.024-1.013,0.071c-5.907,0.835-9.871,8.75-8.835,17.645l0,0c0.628,5.396,3,10.158,6.346,12.74
				c1.959,1.513,4.109,2.153,6.219,1.855c5.907-0.835,9.871-8.75,8.835-17.645c-0.628-5.396-3.001-10.159-6.346-12.741
				C364.32,67.676,362.539,67.02,360.761,67.02z"/>
		</g>
		<path style="fill:#FFB715;" d="M350.442,84.791c1.067,9.163,6.933,15.883,13.103,15.011c6.17-0.872,10.307-9.007,9.24-18.17
			c-1.066-9.163-6.933-15.883-13.103-15.011C353.512,67.493,349.375,75.629,350.442,84.791z M354.653,73.37
			c-2.876,6.284-2.643,20.637,7.086,23.932c3.035,1.028-5.923,2.094-9.248-8.848C349.167,77.512,356.743,68.804,354.653,73.37z"/>
		<g>
			<path style="fill:#FFF9DC;" d="M354.133,84.269c0.89,7.649,5.788,13.259,10.938,12.531c5.151-0.728,8.604-7.519,7.714-15.168
				s-5.788-13.259-10.938-12.531C356.696,69.829,353.242,76.62,354.133,84.269z"/>
			<path style="fill:#FFC255;" d="M364.166,97.34c-1.676,0-3.344-0.609-4.874-1.79c-2.975-2.295-5.08-6.491-5.631-11.225l0,0
				c-0.919-7.89,2.724-14.931,8.119-15.694c1.995-0.281,4.019,0.313,5.846,1.722c2.975,2.295,5.08,6.491,5.631,11.225
				c0.918,7.89-2.724,14.931-8.12,15.693C364.814,97.316,364.49,97.34,364.166,97.34z M354.604,84.215
				c0.522,4.484,2.491,8.44,5.268,10.582c1.618,1.249,3.389,1.777,5.132,1.534c4.889-0.691,8.168-7.26,7.309-14.643
				c-0.522-4.484-2.492-8.44-5.268-10.582c-1.618-1.25-3.394-1.778-5.133-1.534C357.024,70.263,353.745,76.832,354.604,84.215
				L354.604,84.215z"/>
		</g>
		<path style="fill:#FFE0A1;" d="M354.133,84.269c0.89,7.649,5.788,13.259,10.938,12.531c5.151-0.728,8.604-7.519,7.714-15.168
			s-5.788-13.259-10.938-12.531C356.696,69.829,353.242,76.62,354.133,84.269z M363.425,71.711c4.045-0.572,7.89,3.834,8.589,9.84
			c0.699,6.007-2.013,11.339-6.057,11.911c-4.045,0.572-7.89-3.834-8.589-9.84C356.668,77.616,359.38,72.283,363.425,71.711z"/>
	</g>
	<path style="fill:#2B8DD6;" d="M11.8,165.961c0.038-0.117,0.068-0.246,0.108-0.36C11.881,165.679,11.843,165.801,11.8,165.961z"/>
</g>
</svg>
